<?xml version="1.0" encoding="UTF-8"?>
<svg xmlns="http://www.w3.org/2000/svg" xmlns:xlink="http://www.w3.org/1999/xlink" width="128px" height="128px" viewBox="0 0 128 128" version="1.1">
<g id="surface1">
<path style=" stroke:none;fill-rule:nonzero;fill:rgb(0%,47.843137%,80%);fill-opacity:1;" d="M 0 64 L 0 0 L 128 0 L 128 128 L 0 128 "/>
<path style=" stroke:none;fill-rule:nonzero;fill:rgb(100%,100%,100%);fill-opacity:1;" d="M 28.0625 64.222656 L 28.0625 69.441406 L 44.703125 69.441406 L 44.703125 116.800781 L 56.511719 116.800781 L 56.511719 69.441406 L 73.152344 69.441406 L 73.152344 64.320312 C 73.152344 61.441406 73.152344 59.105469 73.023438 59.039062 C 73.023438 58.945312 62.878906 58.910156 50.558594 58.910156 L 28.160156 59.007812 L 28.160156 64.257812 Z M 102.847656 58.878906 C 106.113281 59.648438 108.609375 61.121094 110.847656 63.457031 C 112.03125 64.734375 113.792969 66.976562 113.921875 67.550781 C 113.921875 67.742188 108.382812 71.488281 105.023438 73.566406 C 104.894531 73.664062 104.382812 73.121094 103.871094 72.289062 C 102.207031 69.921875 100.511719 68.894531 97.855469 68.703125 C 94.015625 68.449219 91.457031 70.464844 91.457031 73.824219 C 91.457031 74.847656 91.648438 75.425781 92.03125 76.257812 C 92.894531 78.015625 94.496094 79.070312 99.457031 81.246094 C 108.609375 85.183594 112.574219 87.777344 114.976562 91.488281 C 117.695312 95.648438 118.304688 102.175781 116.480469 107.070312 C 114.433594 112.414062 109.441406 116.03125 102.304688 117.214844 C 100.0625 117.601562 94.945312 117.535156 92.542969 117.121094 C 87.425781 116.160156 82.527344 113.601562 79.519531 110.304688 C 78.335938 109.023438 76.0625 105.601562 76.191406 105.375 L 77.40625 104.609375 L 82.207031 101.824219 L 85.824219 99.710938 L 86.65625 100.832031 C 87.710938 102.496094 90.078125 104.734375 91.457031 105.503906 C 95.617188 107.648438 101.183594 107.359375 103.9375 104.863281 C 105.121094 103.777344 105.632812 102.625 105.632812 101.023438 C 105.632812 99.550781 105.40625 98.878906 104.671875 97.761719 C 103.648438 96.351562 101.601562 95.199219 95.839844 92.640625 C 89.214844 89.824219 86.398438 88.03125 83.777344 85.28125 C 82.273438 83.617188 80.894531 81.023438 80.257812 78.878906 C 79.777344 77.023438 79.617188 72.480469 80.0625 70.65625 C 81.441406 64.257812 86.273438 59.777344 93.183594 58.496094 C 95.425781 58.046875 100.703125 58.238281 102.910156 58.816406 Z M 102.847656 58.878906 "/>
</g>
</svg>
